HIERARCHY
ROOT root
{
	OFFSET 0.000000 0.000000 0.000000
	CHANNELS 6 Xposition Yposition Zposition Zrotation Yrotation Xrotation
	JOINT lhip
	{
		OFFSET 0.058581 -0.082280 -0.017664
		CHANNELS 3 Zrotation Yrotation Xrotation
		JOINT lknee
		{
			OFFSET 0.043451 -0.386469 0.008037
			CHANNELS 3 Zrotation Yrotation Xrotation
			JOINT lankle
			{
				OFFSET -0.014790 -0.426874 -0.037428
				CHANNELS 3 Zrotation Yrotation Xrotation
				JOINT ltoe
				{
					OFFSET 0.041054 -0.060286 0.122042
					CHANNELS 3 Zrotation Yrotation Xrotation
					End Site
					{
						OFFSET 0.000000 0.000000 0.000000
					}
				}
			}
		}
	}
	JOINT rhip
	{
		OFFSET -0.060310 -0.090513 -0.013543
		CHANNELS 3 Zrotation Yrotation Xrotation
		JOINT rknee
		{
			OFFSET -0.043257 -0.383688 -0.004843
			CHANNELS 3 Zrotation Yrotation Xrotation
			JOINT rankle
			{
				OFFSET 0.019056 -0.420046 -0.034562
				CHANNELS 3 Zrotation Yrotation Xrotation
				JOINT rtoe
				{
					OFFSET -0.034840 -0.062106 0.130323
					CHANNELS 3 Zrotation Yrotation Xrotation
					End Site
					{
						OFFSET 0.000000 0.000000 0.000000
					}
				}
			}
		}
	}
	JOINT lowerback
	{
		OFFSET 0.004439 0.124404 -0.038385
		CHANNELS 3 Zrotation Yrotation Xrotation
		JOINT upperback
		{
			OFFSET 0.004488 0.137956 0.026820
			CHANNELS 3 Zrotation Yrotation Xrotation
			JOINT chest
			{
				OFFSET -0.002265 0.056032 0.002855
				CHANNELS 3 Zrotation Yrotation Xrotation
				JOINT lowerneck
				{
					OFFSET -0.013390 0.211636 -0.033468
					CHANNELS 3 Zrotation Yrotation Xrotation
					JOINT upperneck
					{
						OFFSET 0.010113 0.088937 0.050410
						CHANNELS 3 Zrotation Yrotation Xrotation
						End Site
						{
							OFFSET 0.000000 0.000000 0.000000
						}
					}
				}
				JOINT lclavicle
				{
					OFFSET 0.071702 0.114000 -0.018898
					CHANNELS 3 Zrotation Yrotation Xrotation
					JOINT lshoulder
					{
						OFFSET 0.122921 0.045205 -0.019046
						CHANNELS 3 Zrotation Yrotation Xrotation
						JOINT lelbow
						{
							OFFSET 0.255332 -0.015649 -0.022946
							CHANNELS 3 Zrotation Yrotation Xrotation
							JOINT lwrist
							{
								OFFSET 0.265709 0.012698 -0.007375
								CHANNELS 3 Zrotation Yrotation Xrotation
								End Site
								{
									OFFSET 0.000000 0.000000 0.000000
								}
							}
						}
					}
				}
				JOINT rclavicle
				{
					OFFSET -0.082954 0.112472 -0.023707
					CHANNELS 3 Zrotation Yrotation Xrotation
					JOINT rshoulder
					{
						OFFSET -0.113228 0.046853 -0.008472
						CHANNELS 3 Zrotation Yrotation Xrotation
						JOINT relbow
						{
							OFFSET -0.260127 -0.014369 -0.031269
							CHANNELS 3 Zrotation Yrotation Xrotation
							JOINT rwrist
							{
								OFFSET -0.269108 0.006794 -0.006027
								CHANNELS 3 Zrotation Yrotation Xrotation
								End Site
								{
									OFFSET 0.000000 0.000000 0.000000
								}
							}
						}
					}
				}
			}
		}
	}
}
MOTION
Frames: 13
Frame Time: 0.033333
0.518231 0.767606 0.988523 -86.058094 3.599992 88.054686 3.375610 -0.200457 4.331032 -2.797102 -13.841039 2.719938 7.409754 9.197493 -18.995403 0.000000 -0.000000 0.000000 2.181914 -2.560246 1.340095 3.608386 1.477508 6.465036 2.145995 -3.411459 -12.914293 0.000000 -0.000000 0.000000 -2.509502 1.630761 4.966369 1.602000 -2.654752 1.112509 1.855384 -0.855441 1.661611 3.243332 4.927323 13.146904 4.380030 3.379116 3.760042 -24.927351 3.440420 6.151351 -63.755751 -5.778793 7.621542 11.867814 -24.127541 5.395007 -3.545510 -0.585720 -9.445189 23.078539 -1.864735 5.292849 64.097130 2.776019 9.728933 -14.986943 22.700686 -2.318461 8.111690 0.210948 -11.222218 
0.518171 0.767414 0.988431 -86.044335 3.626168 88.080058 3.369447 -0.221150 4.314390 -2.739750 -13.705011 2.736437 7.393858 9.221346 -19.036330 0.000000 -0.000000 0.000000 2.156584 -2.511691 1.345280 3.662486 1.299754 6.415649 2.197863 -3.322302 -12.909381 0.000000 -0.000000 0.000000 -2.429821 1.607366 4.982575 1.573642 -2.595305 1.058985 1.844725 -0.896741 1.781922 3.325114 4.956060 12.868901 4.296083 3.288124 3.969052 -24.884196 3.462377 6.084620 -63.822824 -5.843721 7.615241 11.918464 -24.046180 5.329436 -3.674317 -0.600922 -9.401896 22.938297 -1.876571 5.213385 64.274161 2.907311 9.770539 -15.061405 22.555820 -2.238815 8.186658 0.247739 -11.235284 
0.517947 0.767330 0.988446 -86.096951 3.574482 88.092948 3.313761 -0.246378 4.402403 -2.755829 -13.772213 2.502590 7.323534 9.090514 -18.978316 0.000000 -0.000000 0.000000 2.125764 -2.434284 1.337377 3.583516 1.259311 6.416594 2.264866 -3.301199 -12.869552 0.000000 -0.000000 0.000000 -2.437553 1.620182 4.977885 1.534596 -2.529023 1.030259 1.835816 -0.916444 1.838481 3.365361 4.979639 12.766202 4.260759 3.226423 4.051962 -24.824693 3.487789 6.034118 -63.871939 -5.849095 7.636611 11.915331 -24.010831 5.315715 -3.718312 -0.613396 -9.363300 22.845463 -1.866869 5.207456 64.418735 3.004479 9.795484 -15.158997 22.661654 -2.224310 8.297206 0.281268 -11.290084 
0.517855 0.767512 0.988476 -86.061898 3.592840 88.139705 3.343218 -0.268346 4.285402 -2.758747 -13.665609 2.685405 7.311257 9.244471 -18.963108 0.000000 -0.000000 0.000000 2.171153 -2.390811 1.313234 3.594228 1.256391 6.391437 2.240697 -3.391923 -12.799392 0.000000 -0.000000 0.000000 -2.460317 1.622314 4.958487 1.527075 -2.525705 1.080073 1.848256 -0.932865 1.864195 3.333419 4.958086 12.683295 4.285041 3.248936 4.091765 -24.749653 3.468195 6.031263 -63.943991 -5.879041 7.674001 11.966742 -23.999634 5.381901 -3.630245 -0.566705 -9.421373 22.765900 -1.772288 5.179948 64.529697 3.019877 9.889751 -15.210001 22.773801 -2.149059 8.305079 0.131396 -11.449674 
0.517701 0.767418 0.988489 -86.103870 3.581250 88.155836 3.317477 -0.251689 4.301812 -2.745497 -13.630692 2.659055 7.330742 9.281158 -18.979680 0.000000 -0.000000 0.000000 2.139403 -2.364548 1.306006 3.618534 1.314395 6.391296 2.267772 -3.362259 -12.853441 0.000000 -0.000000 0.000000 -2.463768 1.617628 4.926076 1.518857 -2.520535 1.088537 1.838696 -0.934228 1.922474 3.374407 4.970474 12.587484 4.268469 3.217910 4.147137 -24.847665 3.501089 6.041292 -63.823764 -5.855669 7.681309 12.009903 -24.235342 5.289058 -3.457631 -0.530004 -9.369612 22.843319 -1.722358 5.157904 64.427300 3.054388 9.959374 -15.172473 23.105166 -2.250589 8.190169 0.140252 -11.491931 
0.517666 0.767539 0.988589 -86.101139 3.590532 88.086029 3.317615 -0.250459 4.338041 -2.740830 -13.646929 2.752528 7.409210 9.200189 -19.029048 0.000000 -0.000000 0.000000 2.146176 -2.413274 1.341189 3.610773 1.253500 6.437774 2.258463 -3.303702 -12.855184 0.000000 -0.000000 0.000000 -2.511888 1.673804 5.000316 1.561633 -2.533310 1.220936 1.884176 -0.917441 1.853089 3.394029 4.960797 12.717665 4.270065 3.242258 4.114104 -24.834582 3.407446 6.050845 -63.859153 -5.885338 7.642472 12.088302 -24.265564 5.222088 -3.551125 -0.502993 -9.360665 22.790421 -1.657592 5.130773 64.458353 3.094493 9.905958 -15.301900 23.214462 -2.283140 8.210253 0.096052 -11.405922 
0.517564 0.767570 0.988638 -86.150473 3.597246 88.109385 3.329335 -0.258164 4.270261 -2.780771 -13.618703 2.841671 7.412499 9.122009 -19.069817 0.000000 -0.000000 0.000000 2.146844 -2.384978 1.308625 3.647577 1.301578 6.470997 2.289887 -3.314362 -12.816295 0.000000 -0.000000 0.000000 -2.510672 1.692667 4.989531 1.549688 -2.510686 1.193208 1.886163 -0.892304 1.910270 3.413804 4.984820 12.675570 4.262726 3.215199 4.143126 -24.752303 3.393257 5.979617 -63.806172 -5.908969 7.686556 11.900259 -24.331746 5.415560 -3.450985 -0.489903 -9.350593 22.719869 -1.633323 5.051306 64.476985 3.141868 9.935845 -15.288480 23.370184 -2.241574 8.098296 0.112805 -11.405587 
0.517364 0.767623 0.988632 -86.136886 3.585603 88.156082 3.335796 -0.177226 4.259664 -2.774604 -13.623043 2.817898 7.359017 9.224934 -19.021720 0.000000 -0.000000 0.000000 2.139197 -2.390150 1.292432 3.640635 1.319084 6.441162 2.317881 -3.309277 -12.846888 0.000000 -0.000000 0.000000 -2.546841 1.693137 4.990571 1.552118 -2.508700 1.167454 1.884798 -0.887123 1.897278 3.464485 4.969950 12.663136 4.266746 3.193162 4.174335 -24.755494 3.385491 5.944012 -63.699814 -5.921642 7.742976 11.855349 -24.281207 5.569292 -3.451951 -0.695381 -9.363474 22.683801 -1.585853 5.028232 64.469942 3.172201 9.963348 -15.126275 23.300270 -2.253955 8.088424 0.189869 -11.615409 
0.517387 0.767713 0.988679 -86.122336 3.592070 88.235051 3.332938 -0.187345 4.170548 -2.760522 -13.634072 2.823122 7.336064 9.213531 -19.074377 0.000000 -0.000000 0.000000 2.143086 -2.377384 1.164668 3.628542 1.183043 6.522561 2.331351 -3.238904 -12.848490 0.000000 -0.000000 0.000000 -2.541369 1.680916 5.076854 1.525662 -2.463981 1.008864 1.888809 -0.874554 1.882384 3.413209 4.983681 12.616290 4.255984 3.194326 4.197665 -24.726622 3.313669 5.927381 -63.682902 -5.881314 7.704821 11.904330 -24.341618 5.375775 -3.413844 -0.695095 -9.354370 22.725425 -1.576780 5.123406 64.446838 3.180599 9.930868 -15.262526 23.630191 -2.295745 8.099376 0.374265 -11.530479 
0.517005 0.767917 0.988737 -86.192418 3.577152 88.254169 3.334623 -0.185629 4.274121 -2.731057 -13.611107 2.677042 7.386728 9.239203 -19.035031 0.000000 -0.000000 0.000000 2.158436 -2.329760 1.214510 3.609292 1.259398 6.429990 2.217102 -3.267499 -12.870434 0.000000 -0.000000 0.000000 -2.567219 1.740651 5.074629 1.484178 -2.423805 1.048477 1.838267 -0.876696 1.837939 3.337439 4.995433 12.711342 4.254914 3.232749 4.127909 -24.619653 3.233986 5.981364 -63.650270 -5.910501 7.682520 11.928723 -24.347016 5.346851 -3.466079 -0.661357 -9.525930 22.722408 -1.470757 5.217415 64.512369 3.104244 9.961076 -15.293303 23.810135 -2.307287 8.072715 0.227986 -11.688640 
0.517093 0.768059 0.988736 -86.087195 3.602002 88.370173 3.374126 -0.275066 4.070000 -2.774828 -13.612025 2.820228 7.377278 9.215344 -19.033432 0.000000 -0.000000 0.000000 2.205657 -2.246815 1.126912 3.603306 1.138830 6.338899 2.218053 -3.362783 -12.826540 0.000000 -0.000000 0.000000 -2.596530 1.690837 5.079451 1.505941 -2.454071 0.956108 1.889448 -0.880749 1.878844 3.315724 5.015736 12.640690 4.294013 3.244981 4.131408 -24.683354 3.189302 6.027032 -63.615814 -5.955582 7.646989 12.014725 -24.424968 5.228363 -3.527158 -0.523327 -9.451260 22.659168 -1.503454 5.186910 64.522475 3.160578 9.977648 -15.354693 23.867774 -2.260797 8.197094 0.433450 -11.613897 
0.516656 0.768096 0.988868 -86.130777 3.590012 88.396945 3.346254 -0.260007 4.100331 -2.747576 -13.604980 2.772023 7.359713 9.280718 -19.054882 0.000000 -0.000000 0.000000 2.191823 -2.205909 1.155159 3.613388 1.136615 6.290795 2.298718 -3.358083 -12.808966 0.000000 -0.000000 0.000000 -2.606700 1.665202 5.143830 1.479132 -2.428589 0.814228 1.882105 -0.885576 1.884558 3.360263 5.005073 12.497358 4.288316 3.224644 4.203266 -24.661553 3.281088 5.958254 -63.603801 -5.907366 7.674896 11.976118 -24.408815 5.292484 -3.504759 -0.601623 -9.439067 22.655376 -1.575649 5.126887 64.529897 3.108294 10.040141 -15.309153 23.814589 -2.224688 8.147808 0.419875 -11.628607 
0.516375 0.768153 0.988912 -86.167270 3.600695 88.416602 3.354861 -0.210804 4.112302 -2.732754 -13.576342 2.767262 7.336006 9.291141 -19.114291 0.000000 -0.000000 0.000000 2.191927 -2.214758 1.120558 3.629054 1.150706 6.353101 2.365767 -3.314823 -12.867395 0.000000 -0.000000 0.000000 -2.588045 1.664703 5.310436 1.467606 -2.343934 0.622474 1.885677 -0.884172 1.923382 3.381245 5.030910 12.391857 4.279547 3.219646 4.317273 -24.681384 3.358761 5.873165 -63.498023 -5.870743 7.707961 11.794373 -24.529626 5.481576 -3.430115 -0.755323 -9.314159 22.700989 -1.717048 5.111759 64.379505 3.136331 10.064519 -15.204307 23.951346 -2.102645 8.069943 0.450286 -11.469652 
